<mxfile host="app.diagrams.net" agent="Mozilla/5.0 (Windows NT 10.0; Win64; x64; rv:143.0) Gecko/20100101 Firefox/143.0" version="28.2.3">
  <diagram name="Страница — 1" id="i9xnQ7A0rD7Fb8R9EHWj">
    <mxGraphModel dx="1281" dy="575" grid="0" gridSize="10" guides="1" tooltips="1" connect="1" arrows="1" fold="1" page="0" pageScale="1" pageWidth="1169" pageHeight="827" math="0" shadow="0">
      <root>
        <mxCell id="0" />
        <mxCell id="1" parent="0" />
        <mxCell id="jIZ2BqEK5iqtQ4q3dfxJ-1" value="&lt;div&gt;Пользователь&lt;/div&gt;&lt;div&gt;&lt;br&gt;&lt;/div&gt;" style="shape=umlActor;verticalLabelPosition=bottom;verticalAlign=top;html=1;" vertex="1" parent="1">
          <mxGeometry x="194" y="110" width="30" height="60" as="geometry" />
        </mxCell>
        <mxCell id="jIZ2BqEK5iqtQ4q3dfxJ-2" value="&lt;div&gt;Пользователь&lt;/div&gt;" style="shape=umlActor;verticalLabelPosition=bottom;verticalAlign=top;html=1;" vertex="1" parent="1">
          <mxGeometry x="194" y="451" width="30" height="60" as="geometry" />
        </mxCell>
        <mxCell id="jIZ2BqEK5iqtQ4q3dfxJ-4" value="" style="endArrow=none;dashed=1;html=1;rounded=0;exitX=0.5;exitY=0;exitDx=0;exitDy=0;exitPerimeter=0;" edge="1" parent="1" source="jIZ2BqEK5iqtQ4q3dfxJ-2">
          <mxGeometry width="50" height="50" relative="1" as="geometry">
            <mxPoint x="94" y="310" as="sourcePoint" />
            <mxPoint x="209" y="200" as="targetPoint" />
          </mxGeometry>
        </mxCell>
        <mxCell id="jIZ2BqEK5iqtQ4q3dfxJ-5" value="Счётчик мощности лампы" style="rounded=0;whiteSpace=wrap;html=1;" vertex="1" parent="1">
          <mxGeometry x="354" y="130" width="120" height="40" as="geometry" />
        </mxCell>
        <mxCell id="jIZ2BqEK5iqtQ4q3dfxJ-6" value="Контроллер WB" style="rounded=0;whiteSpace=wrap;html=1;" vertex="1" parent="1">
          <mxGeometry x="564" y="130" width="120" height="40" as="geometry" />
        </mxCell>
        <mxCell id="jIZ2BqEK5iqtQ4q3dfxJ-7" value="Звуковой сигнал" style="rounded=0;whiteSpace=wrap;html=1;" vertex="1" parent="1">
          <mxGeometry x="790" y="130" width="120" height="40" as="geometry" />
        </mxCell>
        <mxCell id="jIZ2BqEK5iqtQ4q3dfxJ-8" value="Счётчик мощности лампы" style="rounded=0;whiteSpace=wrap;html=1;" vertex="1" parent="1">
          <mxGeometry x="354" y="460" width="120" height="40" as="geometry" />
        </mxCell>
        <mxCell id="jIZ2BqEK5iqtQ4q3dfxJ-9" value="Контроллер WB" style="rounded=0;whiteSpace=wrap;html=1;" vertex="1" parent="1">
          <mxGeometry x="564" y="460" width="120" height="40" as="geometry" />
        </mxCell>
        <mxCell id="jIZ2BqEK5iqtQ4q3dfxJ-10" value="Звуковой сигнал" style="rounded=0;whiteSpace=wrap;html=1;" vertex="1" parent="1">
          <mxGeometry x="790" y="460" width="120" height="40" as="geometry" />
        </mxCell>
        <mxCell id="jIZ2BqEK5iqtQ4q3dfxJ-11" value="alt" style="shape=umlFrame;whiteSpace=wrap;html=1;pointerEvents=0;" vertex="1" parent="1">
          <mxGeometry x="570" y="230" width="300" height="150" as="geometry" />
        </mxCell>
        <mxCell id="jIZ2BqEK5iqtQ4q3dfxJ-12" value="" style="endArrow=none;dashed=1;html=1;rounded=0;exitX=0.002;exitY=0.497;exitDx=0;exitDy=0;exitPerimeter=0;entryX=1.002;entryY=0.489;entryDx=0;entryDy=0;entryPerimeter=0;" edge="1" parent="1" source="jIZ2BqEK5iqtQ4q3dfxJ-11" target="jIZ2BqEK5iqtQ4q3dfxJ-11">
          <mxGeometry width="50" height="50" relative="1" as="geometry">
            <mxPoint x="590" y="310" as="sourcePoint" />
            <mxPoint x="640" y="260" as="targetPoint" />
          </mxGeometry>
        </mxCell>
        <mxCell id="jIZ2BqEK5iqtQ4q3dfxJ-13" value="[Мощность выше порога]" style="text;html=1;align=center;verticalAlign=middle;resizable=0;points=[];autosize=1;strokeColor=none;fillColor=none;" vertex="1" parent="1">
          <mxGeometry x="640" y="230" width="160" height="30" as="geometry" />
        </mxCell>
        <mxCell id="jIZ2BqEK5iqtQ4q3dfxJ-14" value="[Мощность ниже порога]" style="text;html=1;align=center;verticalAlign=middle;resizable=0;points=[];autosize=1;strokeColor=none;fillColor=none;" vertex="1" parent="1">
          <mxGeometry x="640" y="310" width="160" height="30" as="geometry" />
        </mxCell>
        <mxCell id="jIZ2BqEK5iqtQ4q3dfxJ-16" value="" style="endArrow=classic;html=1;rounded=0;" edge="1" parent="1">
          <mxGeometry width="50" height="50" relative="1" as="geometry">
            <mxPoint x="662" y="290" as="sourcePoint" />
            <mxPoint x="778" y="290" as="targetPoint" />
          </mxGeometry>
        </mxCell>
        <mxCell id="jIZ2BqEK5iqtQ4q3dfxJ-17" value="" style="endArrow=classic;html=1;rounded=0;" edge="1" parent="1">
          <mxGeometry width="50" height="50" relative="1" as="geometry">
            <mxPoint x="662" y="370" as="sourcePoint" />
            <mxPoint x="778" y="370" as="targetPoint" />
          </mxGeometry>
        </mxCell>
        <mxCell id="jIZ2BqEK5iqtQ4q3dfxJ-18" value="Включить звуковой сигнал" style="text;html=1;align=center;verticalAlign=middle;resizable=0;points=[];autosize=1;strokeColor=none;fillColor=none;" vertex="1" parent="1">
          <mxGeometry x="635" y="258" width="170" height="30" as="geometry" />
        </mxCell>
        <mxCell id="jIZ2BqEK5iqtQ4q3dfxJ-19" value="Выключить звуковой сигнал" style="text;html=1;align=center;verticalAlign=middle;resizable=0;points=[];autosize=1;strokeColor=none;fillColor=none;" vertex="1" parent="1">
          <mxGeometry x="630" y="340" width="180" height="30" as="geometry" />
        </mxCell>
        <mxCell id="jIZ2BqEK5iqtQ4q3dfxJ-20" value="" style="endArrow=none;dashed=1;html=1;rounded=0;exitX=0.5;exitY=0;exitDx=0;exitDy=0;entryX=0.5;entryY=1;entryDx=0;entryDy=0;strokeColor=#6A6A6A;" edge="1" parent="1" source="jIZ2BqEK5iqtQ4q3dfxJ-8" target="jIZ2BqEK5iqtQ4q3dfxJ-5">
          <mxGeometry width="50" height="50" relative="1" as="geometry">
            <mxPoint x="200" y="520" as="sourcePoint" />
            <mxPoint x="200" y="280" as="targetPoint" />
          </mxGeometry>
        </mxCell>
        <mxCell id="jIZ2BqEK5iqtQ4q3dfxJ-21" value="" style="endArrow=none;dashed=1;html=1;rounded=0;exitX=0.5;exitY=0;exitDx=0;exitDy=0;entryX=0.5;entryY=1;entryDx=0;entryDy=0;strokeColor=#656565;" edge="1" parent="1" source="jIZ2BqEK5iqtQ4q3dfxJ-9" target="jIZ2BqEK5iqtQ4q3dfxJ-6">
          <mxGeometry width="50" height="50" relative="1" as="geometry">
            <mxPoint x="410" y="600" as="sourcePoint" />
            <mxPoint x="410" y="310" as="targetPoint" />
          </mxGeometry>
        </mxCell>
        <mxCell id="jIZ2BqEK5iqtQ4q3dfxJ-22" value="" style="endArrow=none;dashed=1;html=1;rounded=0;exitX=0.5;exitY=0;exitDx=0;exitDy=0;entryX=0.5;entryY=1;entryDx=0;entryDy=0;strokeColor=#656565;" edge="1" parent="1" source="jIZ2BqEK5iqtQ4q3dfxJ-10" target="jIZ2BqEK5iqtQ4q3dfxJ-7">
          <mxGeometry width="50" height="50" relative="1" as="geometry">
            <mxPoint x="620" y="490" as="sourcePoint" />
            <mxPoint x="620" y="200" as="targetPoint" />
          </mxGeometry>
        </mxCell>
        <mxCell id="jIZ2BqEK5iqtQ4q3dfxJ-23" value="" style="endArrow=classic;html=1;rounded=0;" edge="1" parent="1">
          <mxGeometry width="50" height="50" relative="1" as="geometry">
            <mxPoint x="420" y="200" as="sourcePoint" />
            <mxPoint x="620" y="200" as="targetPoint" />
          </mxGeometry>
        </mxCell>
        <mxCell id="jIZ2BqEK5iqtQ4q3dfxJ-24" value="Изменение мощности лампы" style="text;html=1;align=center;verticalAlign=middle;resizable=0;points=[];autosize=1;strokeColor=none;fillColor=none;" vertex="1" parent="1">
          <mxGeometry x="420" y="170" width="190" height="30" as="geometry" />
        </mxCell>
        <mxCell id="jIZ2BqEK5iqtQ4q3dfxJ-25" value="" style="endArrow=classic;html=1;rounded=0;" edge="1" parent="1">
          <mxGeometry width="50" height="50" relative="1" as="geometry">
            <mxPoint x="620" y="440" as="sourcePoint" />
            <mxPoint x="220" y="440" as="targetPoint" />
          </mxGeometry>
        </mxCell>
        <mxCell id="jIZ2BqEK5iqtQ4q3dfxJ-26" value="&lt;div&gt;Обновление статуса в интерфейсе&lt;/div&gt;" style="text;html=1;align=center;verticalAlign=middle;resizable=0;points=[];autosize=1;strokeColor=none;fillColor=none;" vertex="1" parent="1">
          <mxGeometry x="280" y="414" width="220" height="30" as="geometry" />
        </mxCell>
      </root>
    </mxGraphModel>
  </diagram>
</mxfile>
